Coordinates
version=1
nRows=5
nColumns=42
inDegrees=yes

Units are S.I. units (second, meters, Newtons, ...)
If the header above contains a line with 'inDegrees', this indicates whether rotational values are in degrees (yes) or radians (no).

endheader
time	pelvis_tilt	pelvis_list	pelvis_rotation	pelvis_tx	pelvis_ty	pelvis_tz	hip_flexion_r	hip_adduction_r	hip_rotation_r	knee_angle_r	knee_adduction_r	knee_angle_r_beta	ankle_angle_r	subtalar_angle_r	mtp_angle_r	hip_flexion_l	hip_adduction_l	hip_rotation_l	knee_angle_l	knee_adduction_l	knee_angle_l_beta	ankle_angle_l	subtalar_angle_l	mtp_angle_l	lumbar_extension	lumbar_bending	lumbar_rotation	arm_flex_r	arm_add_r	arm_rot_r	elbow_flex_r	pro_sup_r	wrist_flex_r	wrist_dev_r	arm_flex_l	arm_add_l	arm_rot_l	elbow_flex_l	pro_sup_l	wrist_flex_l	wrist_dev_l
      1.98000000	     10.24460862	      0.66686819	      8.63766585	      0.29456595	      0.87771987	      0.15692968	     13.45206888	     -0.23404916	     -5.71388540	     50.52124114	      0.15188164	      0.88176200	     17.01565546	    -14.23813262	     -7.52069689	      1.52519655	      5.87772523	     -2.24125828	     27.73036786	     -5.71241386	      0.48398622	     23.79175442	      1.67036171	     -7.52069689	    -38.09414278	      5.40201730	     -8.33449726	     14.04154164	     -9.63106073	      5.91343626	     39.04620693	     90.00000001	      0.00000000	      0.00000000	     21.57062637	    -16.37703182	      3.24960122	     37.13242606	     90.00000001	      0.00000000	      0.00000000
      1.99000000	     10.40458996	      0.52398241	      8.85032997	      0.30276521	      0.87808031	      0.15678887	     13.42777854	     -0.02089750	     -5.08788832	     46.82729052	      0.76195270	      0.81729040	     16.71058035	    -14.27829780	     -7.51993963	      0.68975751	      5.40619504	     -2.42184427	     27.62875836	     -5.53074306	      0.48221280	     24.55910507	      2.45024014	     -7.51993963	    -38.32215384	      5.69326108	     -8.32060043	     13.73566852	     -9.46353311	      5.06397062	     38.23184669	     90.00000001	      0.00000000	      0.00000000	     22.21341691	    -16.78220505	      4.65393450	     37.62687055	     90.00000001	      0.00000000	      0.00000000
      2.00000000	     10.31543086	      0.54524128	      8.88518466	      0.31096014	      0.87771763	      0.15692776	     13.80438413	      0.02238056	     -4.53411734	     43.37613746	      1.06261352	      0.75705642	     16.05262017	    -14.60218412	     -7.51894049	      0.10203888	      5.28939566	     -2.89205915	     27.44968475	     -5.67524283	      0.47908738	     25.16267557	      3.44099902	     -7.51894049	    -38.31187717	      5.68298967	     -8.25358858	     13.19371641	     -9.31517194	      4.25566334	     37.87106627	     90.00000001	      0.00000000	      0.00000000	     22.80572067	    -17.07215341	      5.71478748	     38.24788083	     90.00000001	      0.00000000	      0.00000000
      2.01000000	     10.09220667	      0.58357640	      8.99938724	      0.31896479	      0.87696002	      0.15690324	     14.26629119	     -0.06516666	     -4.20172334	     39.83366028	      1.33033581	      0.69522853	     15.77062219	    -14.53614535	     -7.51815073	     -0.20363482	      5.21515416	     -3.25664009	     27.52737131	     -5.79011159	      0.48044326	     25.83376625	      4.09387843	     -7.51815073	    -38.16904461	      5.69056253	     -8.31277284	     12.75872939	     -9.20980140	      3.70580556	     37.37810467	     90.00000001	      0.00000000	      0.00000000	     23.40946710	    -17.29507626	      6.41401302	     38.72140803	     90.00000001	      0.00000000	      0.00000000
      2.02000000	      9.93073220	      0.61096033	      9.08731577	      0.32719308	      0.87623563	      0.15700563	     14.50546921	     -0.09018175	     -3.98601745	     36.07948523	      1.45246077	      0.62970581	     15.43558014	    -14.47642677	     -7.51738993	     -0.62228686	      5.09117966	     -3.67130645	     27.55516235	     -5.88980770	      0.48092831	     26.51075874	      4.88202554	     -7.51738993	    -38.07041854	      5.70000183	     -8.30514192	     12.28211124	     -9.10377865	      3.05881713	     36.95882434	     90.00000001	      0.00000000	      0.00000000	     23.96060975	    -17.50837844	      7.13936195	     39.24831621	     90.00000001	      0.00000000	      0.00000000
